<mxfile host="app.diagrams.net" agent="Mozilla/5.0 (Windows NT 10.0; Win64; x64) AppleWebKit/537.36 (KHTML, like Gecko) Chrome/134.0.0.0 Safari/537.36" version="26.2.4">
  <diagram name="第 1 页" id="fXplxL7RxXCnTCHVlQfk">
    <mxGraphModel dx="788" dy="467" grid="1" gridSize="10" guides="1" tooltips="1" connect="1" arrows="1" fold="1" page="1" pageScale="1" pageWidth="827" pageHeight="1169" math="1" shadow="0">
      <root>
        <mxCell id="0" />
        <mxCell id="1" parent="0" />
        <mxCell id="59bn6zkRBfai4LQEzVHQ-1" value="&lt;font style=&quot;font-size: 10px;&quot; face=&quot;Simsun&quot;&gt;&lt;b&gt;轨迹表示学习模型&lt;/b&gt;&lt;/font&gt;" style="rounded=1;whiteSpace=wrap;html=1;fillColor=#fff2cc;strokeColor=#d6b656;" parent="1" vertex="1">
          <mxGeometry x="340" y="320" width="50" height="170" as="geometry" />
        </mxCell>
        <mxCell id="59bn6zkRBfai4LQEzVHQ-2" value="" style="curved=1;endArrow=none;html=1;rounded=0;fillColor=#dae8fc;strokeColor=#6c8ebf;startFill=0;strokeWidth=5;" parent="1" edge="1">
          <mxGeometry width="50" height="50" relative="1" as="geometry">
            <mxPoint x="120" y="360" as="sourcePoint" />
            <mxPoint x="170" y="310" as="targetPoint" />
            <Array as="points">
              <mxPoint x="170" y="360" />
              <mxPoint x="120" y="310" />
            </Array>
          </mxGeometry>
        </mxCell>
        <mxCell id="59bn6zkRBfai4LQEzVHQ-5" value="" style="rounded=0;whiteSpace=wrap;html=1;fillColor=#dae8fc;strokeColor=#6c8ebf;" parent="1" vertex="1">
          <mxGeometry x="190" y="330" width="10" height="10" as="geometry" />
        </mxCell>
        <mxCell id="59bn6zkRBfai4LQEzVHQ-7" value="" style="rounded=0;whiteSpace=wrap;html=1;fillColor=#dae8fc;strokeColor=#6c8ebf;" parent="1" vertex="1">
          <mxGeometry x="200" y="330" width="10" height="10" as="geometry" />
        </mxCell>
        <mxCell id="59bn6zkRBfai4LQEzVHQ-8" value="" style="rounded=0;whiteSpace=wrap;html=1;fillColor=#dae8fc;strokeColor=#6c8ebf;" parent="1" vertex="1">
          <mxGeometry x="210" y="330" width="10" height="10" as="geometry" />
        </mxCell>
        <mxCell id="59bn6zkRBfai4LQEzVHQ-9" value="" style="rounded=0;whiteSpace=wrap;html=1;fillColor=#dae8fc;strokeColor=#6c8ebf;" parent="1" vertex="1">
          <mxGeometry x="220" y="330" width="10" height="10" as="geometry" />
        </mxCell>
        <mxCell id="59bn6zkRBfai4LQEzVHQ-10" value="" style="rounded=0;whiteSpace=wrap;html=1;fillColor=#dae8fc;strokeColor=#6c8ebf;" parent="1" vertex="1">
          <mxGeometry x="230" y="330" width="10" height="10" as="geometry" />
        </mxCell>
        <mxCell id="59bn6zkRBfai4LQEzVHQ-11" value="" style="rounded=0;whiteSpace=wrap;html=1;fillColor=#dae8fc;strokeColor=#6c8ebf;" parent="1" vertex="1">
          <mxGeometry x="240" y="330" width="10" height="10" as="geometry" />
        </mxCell>
        <mxCell id="59bn6zkRBfai4LQEzVHQ-12" value="" style="rounded=0;whiteSpace=wrap;html=1;fillColor=#dae8fc;strokeColor=#6c8ebf;" parent="1" vertex="1">
          <mxGeometry x="250" y="330" width="10" height="10" as="geometry" />
        </mxCell>
        <mxCell id="59bn6zkRBfai4LQEzVHQ-13" value="" style="curved=1;endArrow=none;html=1;rounded=0;fillColor=#f8cecc;strokeColor=#b85450;startFill=0;strokeWidth=5;" parent="1" edge="1">
          <mxGeometry width="50" height="50" relative="1" as="geometry">
            <mxPoint x="120" y="430" as="sourcePoint" />
            <mxPoint x="170" y="380" as="targetPoint" />
            <Array as="points">
              <mxPoint x="170" y="430" />
              <mxPoint x="100" y="390" />
            </Array>
          </mxGeometry>
        </mxCell>
        <mxCell id="59bn6zkRBfai4LQEzVHQ-14" value="" style="rounded=0;whiteSpace=wrap;html=1;fillColor=#f8cecc;strokeColor=#b85450;" parent="1" vertex="1">
          <mxGeometry x="190" y="400" width="10" height="10" as="geometry" />
        </mxCell>
        <mxCell id="59bn6zkRBfai4LQEzVHQ-15" value="" style="rounded=0;whiteSpace=wrap;html=1;fillColor=#f8cecc;strokeColor=#b85450;" parent="1" vertex="1">
          <mxGeometry x="200" y="400" width="10" height="10" as="geometry" />
        </mxCell>
        <mxCell id="59bn6zkRBfai4LQEzVHQ-16" value="" style="rounded=0;whiteSpace=wrap;html=1;fillColor=#f8cecc;strokeColor=#b85450;" parent="1" vertex="1">
          <mxGeometry x="210" y="400" width="10" height="10" as="geometry" />
        </mxCell>
        <mxCell id="59bn6zkRBfai4LQEzVHQ-17" value="" style="rounded=0;whiteSpace=wrap;html=1;fillColor=#f8cecc;strokeColor=#b85450;" parent="1" vertex="1">
          <mxGeometry x="220" y="400" width="10" height="10" as="geometry" />
        </mxCell>
        <mxCell id="59bn6zkRBfai4LQEzVHQ-18" value="" style="rounded=0;whiteSpace=wrap;html=1;fillColor=#f8cecc;strokeColor=#b85450;" parent="1" vertex="1">
          <mxGeometry x="230" y="400" width="10" height="10" as="geometry" />
        </mxCell>
        <mxCell id="59bn6zkRBfai4LQEzVHQ-19" value="" style="rounded=0;whiteSpace=wrap;html=1;fillColor=#f8cecc;strokeColor=#b85450;" parent="1" vertex="1">
          <mxGeometry x="240" y="400" width="10" height="10" as="geometry" />
        </mxCell>
        <mxCell id="59bn6zkRBfai4LQEzVHQ-20" value="" style="rounded=0;whiteSpace=wrap;html=1;fillColor=#f8cecc;strokeColor=#b85450;" parent="1" vertex="1">
          <mxGeometry x="250" y="400" width="10" height="10" as="geometry" />
        </mxCell>
        <mxCell id="59bn6zkRBfai4LQEzVHQ-21" value="" style="rounded=0;whiteSpace=wrap;html=1;fillColor=#f8cecc;strokeColor=#b85450;" parent="1" vertex="1">
          <mxGeometry x="260" y="400" width="10" height="10" as="geometry" />
        </mxCell>
        <mxCell id="59bn6zkRBfai4LQEzVHQ-22" value="" style="rounded=0;whiteSpace=wrap;html=1;fillColor=#f8cecc;strokeColor=#b85450;" parent="1" vertex="1">
          <mxGeometry x="270" y="400" width="10" height="10" as="geometry" />
        </mxCell>
        <mxCell id="59bn6zkRBfai4LQEzVHQ-23" value="" style="rounded=0;whiteSpace=wrap;html=1;fillColor=#f8cecc;strokeColor=#b85450;" parent="1" vertex="1">
          <mxGeometry x="280" y="400" width="10" height="10" as="geometry" />
        </mxCell>
        <mxCell id="59bn6zkRBfai4LQEzVHQ-24" value="" style="curved=1;endArrow=none;html=1;rounded=0;fillColor=#d5e8d4;strokeColor=#82b366;startFill=0;strokeWidth=5;" parent="1" edge="1">
          <mxGeometry width="50" height="50" relative="1" as="geometry">
            <mxPoint x="120" y="490" as="sourcePoint" />
            <mxPoint x="170" y="460" as="targetPoint" />
            <Array as="points">
              <mxPoint x="150" y="490" />
              <mxPoint x="150" y="480" />
              <mxPoint x="130" y="470" />
            </Array>
          </mxGeometry>
        </mxCell>
        <mxCell id="59bn6zkRBfai4LQEzVHQ-25" value="" style="rounded=0;whiteSpace=wrap;html=1;fillColor=#d5e8d4;strokeColor=#82b366;" parent="1" vertex="1">
          <mxGeometry x="190" y="470" width="10" height="10" as="geometry" />
        </mxCell>
        <mxCell id="59bn6zkRBfai4LQEzVHQ-26" value="" style="rounded=0;whiteSpace=wrap;html=1;fillColor=#d5e8d4;strokeColor=#82b366;" parent="1" vertex="1">
          <mxGeometry x="200" y="470" width="10" height="10" as="geometry" />
        </mxCell>
        <mxCell id="59bn6zkRBfai4LQEzVHQ-27" value="" style="rounded=0;whiteSpace=wrap;html=1;fillColor=#d5e8d4;strokeColor=#82b366;" parent="1" vertex="1">
          <mxGeometry x="210" y="470" width="10" height="10" as="geometry" />
        </mxCell>
        <mxCell id="59bn6zkRBfai4LQEzVHQ-28" value="" style="rounded=0;whiteSpace=wrap;html=1;fillColor=#d5e8d4;strokeColor=#82b366;" parent="1" vertex="1">
          <mxGeometry x="220" y="470" width="10" height="10" as="geometry" />
        </mxCell>
        <mxCell id="59bn6zkRBfai4LQEzVHQ-29" value="" style="rounded=0;whiteSpace=wrap;html=1;fillColor=#d5e8d4;strokeColor=#82b366;" parent="1" vertex="1">
          <mxGeometry x="230" y="470" width="10" height="10" as="geometry" />
        </mxCell>
        <mxCell id="59bn6zkRBfai4LQEzVHQ-51" value="" style="rounded=0;whiteSpace=wrap;html=1;fillColor=#dae8fc;strokeColor=#6c8ebf;" parent="1" vertex="1">
          <mxGeometry x="190" y="340" width="10" height="10" as="geometry" />
        </mxCell>
        <mxCell id="59bn6zkRBfai4LQEzVHQ-52" value="" style="rounded=0;whiteSpace=wrap;html=1;fillColor=#dae8fc;strokeColor=#6c8ebf;" parent="1" vertex="1">
          <mxGeometry x="200" y="340" width="10" height="10" as="geometry" />
        </mxCell>
        <mxCell id="59bn6zkRBfai4LQEzVHQ-53" value="" style="rounded=0;whiteSpace=wrap;html=1;fillColor=#dae8fc;strokeColor=#6c8ebf;" parent="1" vertex="1">
          <mxGeometry x="210" y="340" width="10" height="10" as="geometry" />
        </mxCell>
        <mxCell id="59bn6zkRBfai4LQEzVHQ-54" value="" style="rounded=0;whiteSpace=wrap;html=1;fillColor=#dae8fc;strokeColor=#6c8ebf;" parent="1" vertex="1">
          <mxGeometry x="220" y="340" width="10" height="10" as="geometry" />
        </mxCell>
        <mxCell id="59bn6zkRBfai4LQEzVHQ-55" value="" style="rounded=0;whiteSpace=wrap;html=1;fillColor=#dae8fc;strokeColor=#6c8ebf;" parent="1" vertex="1">
          <mxGeometry x="230" y="340" width="10" height="10" as="geometry" />
        </mxCell>
        <mxCell id="59bn6zkRBfai4LQEzVHQ-56" value="" style="rounded=0;whiteSpace=wrap;html=1;fillColor=#dae8fc;strokeColor=#6c8ebf;" parent="1" vertex="1">
          <mxGeometry x="240" y="340" width="10" height="10" as="geometry" />
        </mxCell>
        <mxCell id="59bn6zkRBfai4LQEzVHQ-57" value="" style="rounded=0;whiteSpace=wrap;html=1;fillColor=#dae8fc;strokeColor=#6c8ebf;" parent="1" vertex="1">
          <mxGeometry x="250" y="340" width="10" height="10" as="geometry" />
        </mxCell>
        <mxCell id="59bn6zkRBfai4LQEzVHQ-58" value="" style="rounded=0;whiteSpace=wrap;html=1;fillColor=#dae8fc;strokeColor=#6c8ebf;" parent="1" vertex="1">
          <mxGeometry x="190" y="320" width="10" height="10" as="geometry" />
        </mxCell>
        <mxCell id="59bn6zkRBfai4LQEzVHQ-59" value="" style="rounded=0;whiteSpace=wrap;html=1;fillColor=#dae8fc;strokeColor=#6c8ebf;" parent="1" vertex="1">
          <mxGeometry x="200" y="320" width="10" height="10" as="geometry" />
        </mxCell>
        <mxCell id="59bn6zkRBfai4LQEzVHQ-60" value="" style="rounded=0;whiteSpace=wrap;html=1;fillColor=#dae8fc;strokeColor=#6c8ebf;" parent="1" vertex="1">
          <mxGeometry x="210" y="320" width="10" height="10" as="geometry" />
        </mxCell>
        <mxCell id="59bn6zkRBfai4LQEzVHQ-61" value="" style="rounded=0;whiteSpace=wrap;html=1;fillColor=#dae8fc;strokeColor=#6c8ebf;" parent="1" vertex="1">
          <mxGeometry x="220" y="320" width="10" height="10" as="geometry" />
        </mxCell>
        <mxCell id="59bn6zkRBfai4LQEzVHQ-62" value="" style="rounded=0;whiteSpace=wrap;html=1;fillColor=#dae8fc;strokeColor=#6c8ebf;" parent="1" vertex="1">
          <mxGeometry x="230" y="320" width="10" height="10" as="geometry" />
        </mxCell>
        <mxCell id="59bn6zkRBfai4LQEzVHQ-63" value="" style="rounded=0;whiteSpace=wrap;html=1;fillColor=#dae8fc;strokeColor=#6c8ebf;" parent="1" vertex="1">
          <mxGeometry x="240" y="320" width="10" height="10" as="geometry" />
        </mxCell>
        <mxCell id="59bn6zkRBfai4LQEzVHQ-64" value="" style="rounded=0;whiteSpace=wrap;html=1;fillColor=#dae8fc;strokeColor=#6c8ebf;" parent="1" vertex="1">
          <mxGeometry x="250" y="320" width="10" height="10" as="geometry" />
        </mxCell>
        <mxCell id="59bn6zkRBfai4LQEzVHQ-65" value="" style="rounded=0;whiteSpace=wrap;html=1;fillColor=#f8cecc;strokeColor=#b85450;" parent="1" vertex="1">
          <mxGeometry x="190" y="390" width="10" height="10" as="geometry" />
        </mxCell>
        <mxCell id="59bn6zkRBfai4LQEzVHQ-66" value="" style="rounded=0;whiteSpace=wrap;html=1;fillColor=#f8cecc;strokeColor=#b85450;" parent="1" vertex="1">
          <mxGeometry x="200" y="390" width="10" height="10" as="geometry" />
        </mxCell>
        <mxCell id="59bn6zkRBfai4LQEzVHQ-67" value="" style="rounded=0;whiteSpace=wrap;html=1;fillColor=#f8cecc;strokeColor=#b85450;" parent="1" vertex="1">
          <mxGeometry x="210" y="390" width="10" height="10" as="geometry" />
        </mxCell>
        <mxCell id="59bn6zkRBfai4LQEzVHQ-68" value="" style="rounded=0;whiteSpace=wrap;html=1;fillColor=#f8cecc;strokeColor=#b85450;" parent="1" vertex="1">
          <mxGeometry x="220" y="390" width="10" height="10" as="geometry" />
        </mxCell>
        <mxCell id="59bn6zkRBfai4LQEzVHQ-69" value="" style="rounded=0;whiteSpace=wrap;html=1;fillColor=#f8cecc;strokeColor=#b85450;" parent="1" vertex="1">
          <mxGeometry x="230" y="390" width="10" height="10" as="geometry" />
        </mxCell>
        <mxCell id="59bn6zkRBfai4LQEzVHQ-70" value="" style="rounded=0;whiteSpace=wrap;html=1;fillColor=#f8cecc;strokeColor=#b85450;" parent="1" vertex="1">
          <mxGeometry x="240" y="390" width="10" height="10" as="geometry" />
        </mxCell>
        <mxCell id="59bn6zkRBfai4LQEzVHQ-71" value="" style="rounded=0;whiteSpace=wrap;html=1;fillColor=#f8cecc;strokeColor=#b85450;" parent="1" vertex="1">
          <mxGeometry x="250" y="390" width="10" height="10" as="geometry" />
        </mxCell>
        <mxCell id="59bn6zkRBfai4LQEzVHQ-72" value="" style="rounded=0;whiteSpace=wrap;html=1;fillColor=#f8cecc;strokeColor=#b85450;" parent="1" vertex="1">
          <mxGeometry x="260" y="390" width="10" height="10" as="geometry" />
        </mxCell>
        <mxCell id="59bn6zkRBfai4LQEzVHQ-73" value="" style="rounded=0;whiteSpace=wrap;html=1;fillColor=#f8cecc;strokeColor=#b85450;" parent="1" vertex="1">
          <mxGeometry x="270" y="390" width="10" height="10" as="geometry" />
        </mxCell>
        <mxCell id="59bn6zkRBfai4LQEzVHQ-74" value="" style="rounded=0;whiteSpace=wrap;html=1;fillColor=#f8cecc;strokeColor=#b85450;" parent="1" vertex="1">
          <mxGeometry x="280" y="390" width="10" height="10" as="geometry" />
        </mxCell>
        <mxCell id="59bn6zkRBfai4LQEzVHQ-75" value="" style="rounded=0;whiteSpace=wrap;html=1;fillColor=#f8cecc;strokeColor=#b85450;" parent="1" vertex="1">
          <mxGeometry x="190" y="410" width="10" height="10" as="geometry" />
        </mxCell>
        <mxCell id="59bn6zkRBfai4LQEzVHQ-76" value="" style="rounded=0;whiteSpace=wrap;html=1;fillColor=#f8cecc;strokeColor=#b85450;" parent="1" vertex="1">
          <mxGeometry x="200" y="410" width="10" height="10" as="geometry" />
        </mxCell>
        <mxCell id="59bn6zkRBfai4LQEzVHQ-77" value="" style="rounded=0;whiteSpace=wrap;html=1;fillColor=#f8cecc;strokeColor=#b85450;" parent="1" vertex="1">
          <mxGeometry x="210" y="410" width="10" height="10" as="geometry" />
        </mxCell>
        <mxCell id="59bn6zkRBfai4LQEzVHQ-78" value="" style="rounded=0;whiteSpace=wrap;html=1;fillColor=#f8cecc;strokeColor=#b85450;" parent="1" vertex="1">
          <mxGeometry x="220" y="410" width="10" height="10" as="geometry" />
        </mxCell>
        <mxCell id="59bn6zkRBfai4LQEzVHQ-79" value="" style="rounded=0;whiteSpace=wrap;html=1;fillColor=#f8cecc;strokeColor=#b85450;" parent="1" vertex="1">
          <mxGeometry x="230" y="410" width="10" height="10" as="geometry" />
        </mxCell>
        <mxCell id="59bn6zkRBfai4LQEzVHQ-80" value="" style="rounded=0;whiteSpace=wrap;html=1;fillColor=#f8cecc;strokeColor=#b85450;" parent="1" vertex="1">
          <mxGeometry x="240" y="410" width="10" height="10" as="geometry" />
        </mxCell>
        <mxCell id="59bn6zkRBfai4LQEzVHQ-81" value="" style="rounded=0;whiteSpace=wrap;html=1;fillColor=#f8cecc;strokeColor=#b85450;" parent="1" vertex="1">
          <mxGeometry x="250" y="410" width="10" height="10" as="geometry" />
        </mxCell>
        <mxCell id="59bn6zkRBfai4LQEzVHQ-82" value="" style="rounded=0;whiteSpace=wrap;html=1;fillColor=#f8cecc;strokeColor=#b85450;" parent="1" vertex="1">
          <mxGeometry x="260" y="410" width="10" height="10" as="geometry" />
        </mxCell>
        <mxCell id="59bn6zkRBfai4LQEzVHQ-83" value="" style="rounded=0;whiteSpace=wrap;html=1;fillColor=#f8cecc;strokeColor=#b85450;" parent="1" vertex="1">
          <mxGeometry x="270" y="410" width="10" height="10" as="geometry" />
        </mxCell>
        <mxCell id="59bn6zkRBfai4LQEzVHQ-84" value="" style="rounded=0;whiteSpace=wrap;html=1;fillColor=#f8cecc;strokeColor=#b85450;" parent="1" vertex="1">
          <mxGeometry x="280" y="410" width="10" height="10" as="geometry" />
        </mxCell>
        <mxCell id="59bn6zkRBfai4LQEzVHQ-95" value="" style="rounded=0;whiteSpace=wrap;html=1;fillColor=#d5e8d4;strokeColor=#82b366;" parent="1" vertex="1">
          <mxGeometry x="190" y="480" width="10" height="10" as="geometry" />
        </mxCell>
        <mxCell id="59bn6zkRBfai4LQEzVHQ-96" value="" style="rounded=0;whiteSpace=wrap;html=1;fillColor=#d5e8d4;strokeColor=#82b366;" parent="1" vertex="1">
          <mxGeometry x="200" y="480" width="10" height="10" as="geometry" />
        </mxCell>
        <mxCell id="59bn6zkRBfai4LQEzVHQ-97" value="" style="rounded=0;whiteSpace=wrap;html=1;fillColor=#d5e8d4;strokeColor=#82b366;" parent="1" vertex="1">
          <mxGeometry x="210" y="480" width="10" height="10" as="geometry" />
        </mxCell>
        <mxCell id="59bn6zkRBfai4LQEzVHQ-98" value="" style="rounded=0;whiteSpace=wrap;html=1;fillColor=#d5e8d4;strokeColor=#82b366;" parent="1" vertex="1">
          <mxGeometry x="220" y="480" width="10" height="10" as="geometry" />
        </mxCell>
        <mxCell id="59bn6zkRBfai4LQEzVHQ-99" value="" style="rounded=0;whiteSpace=wrap;html=1;fillColor=#d5e8d4;strokeColor=#82b366;" parent="1" vertex="1">
          <mxGeometry x="230" y="480" width="10" height="10" as="geometry" />
        </mxCell>
        <mxCell id="59bn6zkRBfai4LQEzVHQ-100" value="" style="rounded=0;whiteSpace=wrap;html=1;fillColor=#d5e8d4;strokeColor=#82b366;" parent="1" vertex="1">
          <mxGeometry x="190" y="460" width="10" height="10" as="geometry" />
        </mxCell>
        <mxCell id="59bn6zkRBfai4LQEzVHQ-101" value="" style="rounded=0;whiteSpace=wrap;html=1;fillColor=#d5e8d4;strokeColor=#82b366;" parent="1" vertex="1">
          <mxGeometry x="200" y="460" width="10" height="10" as="geometry" />
        </mxCell>
        <mxCell id="59bn6zkRBfai4LQEzVHQ-102" value="" style="rounded=0;whiteSpace=wrap;html=1;fillColor=#d5e8d4;strokeColor=#82b366;" parent="1" vertex="1">
          <mxGeometry x="210" y="460" width="10" height="10" as="geometry" />
        </mxCell>
        <mxCell id="59bn6zkRBfai4LQEzVHQ-103" value="" style="rounded=0;whiteSpace=wrap;html=1;fillColor=#d5e8d4;strokeColor=#82b366;" parent="1" vertex="1">
          <mxGeometry x="220" y="460" width="10" height="10" as="geometry" />
        </mxCell>
        <mxCell id="59bn6zkRBfai4LQEzVHQ-104" value="" style="rounded=0;whiteSpace=wrap;html=1;fillColor=#d5e8d4;strokeColor=#82b366;" parent="1" vertex="1">
          <mxGeometry x="230" y="460" width="10" height="10" as="geometry" />
        </mxCell>
        <mxCell id="59bn6zkRBfai4LQEzVHQ-129" value="" style="rounded=0;whiteSpace=wrap;html=1;fillColor=#dae8fc;strokeColor=#6c8ebf;" parent="1" vertex="1">
          <mxGeometry x="440" y="315" width="10" height="10" as="geometry" />
        </mxCell>
        <mxCell id="59bn6zkRBfai4LQEzVHQ-130" value="" style="rounded=0;whiteSpace=wrap;html=1;fillColor=#dae8fc;strokeColor=#6c8ebf;" parent="1" vertex="1">
          <mxGeometry x="440" y="325" width="10" height="10" as="geometry" />
        </mxCell>
        <mxCell id="59bn6zkRBfai4LQEzVHQ-131" value="" style="rounded=0;whiteSpace=wrap;html=1;fillColor=#dae8fc;strokeColor=#6c8ebf;" parent="1" vertex="1">
          <mxGeometry x="440" y="305" width="10" height="10" as="geometry" />
        </mxCell>
        <mxCell id="59bn6zkRBfai4LQEzVHQ-132" value="" style="rounded=0;whiteSpace=wrap;html=1;fillColor=#dae8fc;strokeColor=#6c8ebf;" parent="1" vertex="1">
          <mxGeometry x="440" y="345" width="10" height="10" as="geometry" />
        </mxCell>
        <mxCell id="59bn6zkRBfai4LQEzVHQ-133" value="" style="rounded=0;whiteSpace=wrap;html=1;fillColor=#dae8fc;strokeColor=#6c8ebf;" parent="1" vertex="1">
          <mxGeometry x="440" y="355" width="10" height="10" as="geometry" />
        </mxCell>
        <mxCell id="59bn6zkRBfai4LQEzVHQ-134" value="" style="rounded=0;whiteSpace=wrap;html=1;fillColor=#dae8fc;strokeColor=#6c8ebf;" parent="1" vertex="1">
          <mxGeometry x="440" y="335" width="10" height="10" as="geometry" />
        </mxCell>
        <mxCell id="59bn6zkRBfai4LQEzVHQ-135" value="" style="rounded=0;whiteSpace=wrap;html=1;fillColor=#f8cecc;strokeColor=#b85450;" parent="1" vertex="1">
          <mxGeometry x="440" y="385" width="10" height="10" as="geometry" />
        </mxCell>
        <mxCell id="59bn6zkRBfai4LQEzVHQ-136" value="" style="rounded=0;whiteSpace=wrap;html=1;fillColor=#f8cecc;strokeColor=#b85450;" parent="1" vertex="1">
          <mxGeometry x="440" y="395" width="10" height="10" as="geometry" />
        </mxCell>
        <mxCell id="59bn6zkRBfai4LQEzVHQ-137" value="" style="rounded=0;whiteSpace=wrap;html=1;fillColor=#f8cecc;strokeColor=#b85450;" parent="1" vertex="1">
          <mxGeometry x="440" y="375" width="10" height="10" as="geometry" />
        </mxCell>
        <mxCell id="59bn6zkRBfai4LQEzVHQ-138" value="" style="rounded=0;whiteSpace=wrap;html=1;fillColor=#f8cecc;strokeColor=#b85450;" parent="1" vertex="1">
          <mxGeometry x="440" y="415" width="10" height="10" as="geometry" />
        </mxCell>
        <mxCell id="59bn6zkRBfai4LQEzVHQ-139" value="" style="rounded=0;whiteSpace=wrap;html=1;fillColor=#f8cecc;strokeColor=#b85450;" parent="1" vertex="1">
          <mxGeometry x="440" y="425" width="10" height="10" as="geometry" />
        </mxCell>
        <mxCell id="59bn6zkRBfai4LQEzVHQ-140" value="" style="rounded=0;whiteSpace=wrap;html=1;fillColor=#f8cecc;strokeColor=#b85450;" parent="1" vertex="1">
          <mxGeometry x="440" y="405" width="10" height="10" as="geometry" />
        </mxCell>
        <mxCell id="59bn6zkRBfai4LQEzVHQ-147" value="" style="endArrow=classic;html=1;rounded=0;fillColor=#dae8fc;strokeColor=#6c8ebf;" parent="1" edge="1">
          <mxGeometry width="50" height="50" relative="1" as="geometry">
            <mxPoint x="300" y="335" as="sourcePoint" />
            <mxPoint x="330" y="335" as="targetPoint" />
          </mxGeometry>
        </mxCell>
        <mxCell id="59bn6zkRBfai4LQEzVHQ-148" value="" style="endArrow=classic;html=1;rounded=0;fillColor=#f8cecc;strokeColor=#b85450;" parent="1" edge="1">
          <mxGeometry width="50" height="50" relative="1" as="geometry">
            <mxPoint x="300" y="405" as="sourcePoint" />
            <mxPoint x="330" y="405" as="targetPoint" />
          </mxGeometry>
        </mxCell>
        <mxCell id="59bn6zkRBfai4LQEzVHQ-149" value="" style="endArrow=classic;html=1;rounded=0;fillColor=#d5e8d4;strokeColor=#82b366;" parent="1" edge="1">
          <mxGeometry width="50" height="50" relative="1" as="geometry">
            <mxPoint x="300" y="474.72" as="sourcePoint" />
            <mxPoint x="330" y="474.72" as="targetPoint" />
          </mxGeometry>
        </mxCell>
        <mxCell id="59bn6zkRBfai4LQEzVHQ-150" value="" style="endArrow=classic;html=1;rounded=0;fillColor=#dae8fc;strokeColor=#6c8ebf;" parent="1" edge="1">
          <mxGeometry width="50" height="50" relative="1" as="geometry">
            <mxPoint x="400" y="335" as="sourcePoint" />
            <mxPoint x="430" y="335" as="targetPoint" />
          </mxGeometry>
        </mxCell>
        <mxCell id="59bn6zkRBfai4LQEzVHQ-151" value="" style="endArrow=classic;html=1;rounded=0;fillColor=#f8cecc;strokeColor=#b85450;" parent="1" edge="1">
          <mxGeometry width="50" height="50" relative="1" as="geometry">
            <mxPoint x="400" y="405" as="sourcePoint" />
            <mxPoint x="430" y="405" as="targetPoint" />
          </mxGeometry>
        </mxCell>
        <mxCell id="59bn6zkRBfai4LQEzVHQ-152" value="" style="endArrow=classic;html=1;rounded=0;fillColor=#d5e8d4;strokeColor=#82b366;" parent="1" edge="1">
          <mxGeometry width="50" height="50" relative="1" as="geometry">
            <mxPoint x="400" y="474.9" as="sourcePoint" />
            <mxPoint x="430" y="474.9" as="targetPoint" />
          </mxGeometry>
        </mxCell>
        <mxCell id="59bn6zkRBfai4LQEzVHQ-155" value="&lt;font style=&quot;font-size: 8px;&quot;&gt;$$(L_{1},F)$$&lt;/font&gt;" style="text;html=1;align=center;verticalAlign=middle;whiteSpace=wrap;rounded=0;" parent="1" vertex="1">
          <mxGeometry x="190" y="350" width="40" height="20" as="geometry" />
        </mxCell>
        <mxCell id="59bn6zkRBfai4LQEzVHQ-156" value="&lt;font style=&quot;font-size: 8px;&quot;&gt;$$(L_{2},F)$$&lt;/font&gt;" style="text;html=1;align=center;verticalAlign=middle;whiteSpace=wrap;rounded=0;" parent="1" vertex="1">
          <mxGeometry x="190" y="420" width="40" height="20" as="geometry" />
        </mxCell>
        <mxCell id="59bn6zkRBfai4LQEzVHQ-157" value="&lt;font style=&quot;font-size: 8px;&quot;&gt;$$(L_{3},F)$$&lt;/font&gt;" style="text;html=1;align=center;verticalAlign=middle;whiteSpace=wrap;rounded=0;" parent="1" vertex="1">
          <mxGeometry x="190" y="490" width="40" height="20" as="geometry" />
        </mxCell>
        <mxCell id="59bn6zkRBfai4LQEzVHQ-158" value="&lt;font style=&quot;font-size: 8px;&quot;&gt;$$(H)$$&lt;/font&gt;" style="text;html=1;align=center;verticalAlign=middle;whiteSpace=wrap;rounded=0;" parent="1" vertex="1">
          <mxGeometry x="450" y="345" width="30" height="20" as="geometry" />
        </mxCell>
        <mxCell id="59bn6zkRBfai4LQEzVHQ-159" value="&lt;font style=&quot;font-size: 8px;&quot;&gt;$$(H)$$&lt;/font&gt;" style="text;html=1;align=center;verticalAlign=middle;whiteSpace=wrap;rounded=0;" parent="1" vertex="1">
          <mxGeometry x="450" y="415" width="30" height="20" as="geometry" />
        </mxCell>
        <mxCell id="59bn6zkRBfai4LQEzVHQ-160" value="&lt;font style=&quot;font-size: 8px;&quot;&gt;$$(H)$$&lt;/font&gt;" style="text;html=1;align=center;verticalAlign=middle;whiteSpace=wrap;rounded=0;" parent="1" vertex="1">
          <mxGeometry x="450" y="485" width="30" height="20" as="geometry" />
        </mxCell>
        <mxCell id="hb5ULUkR8Dq5Dztwlfbj-1" value="" style="rounded=0;whiteSpace=wrap;html=1;fillColor=#dae8fc;strokeColor=#6c8ebf;direction=north;flipV=1;flipH=1;rotation=0;" vertex="1" parent="1">
          <mxGeometry x="510" y="389" width="10" height="10" as="geometry" />
        </mxCell>
        <mxCell id="hb5ULUkR8Dq5Dztwlfbj-2" value="" style="rounded=0;whiteSpace=wrap;html=1;fillColor=#dae8fc;strokeColor=#6c8ebf;direction=north;flipV=1;flipH=1;rotation=0;" vertex="1" parent="1">
          <mxGeometry x="560" y="389" width="10" height="10" as="geometry" />
        </mxCell>
        <mxCell id="hb5ULUkR8Dq5Dztwlfbj-3" value="" style="rounded=0;whiteSpace=wrap;html=1;fillColor=#dae8fc;strokeColor=#6c8ebf;direction=north;flipV=1;flipH=1;rotation=0;" vertex="1" parent="1">
          <mxGeometry x="520" y="389" width="10" height="10" as="geometry" />
        </mxCell>
        <mxCell id="hb5ULUkR8Dq5Dztwlfbj-4" value="" style="rounded=0;whiteSpace=wrap;html=1;fillColor=#dae8fc;strokeColor=#6c8ebf;direction=north;flipV=1;flipH=1;rotation=0;" vertex="1" parent="1">
          <mxGeometry x="540" y="389" width="10" height="10" as="geometry" />
        </mxCell>
        <mxCell id="hb5ULUkR8Dq5Dztwlfbj-5" value="" style="rounded=0;whiteSpace=wrap;html=1;fillColor=#dae8fc;strokeColor=#6c8ebf;direction=north;flipV=1;flipH=1;rotation=0;" vertex="1" parent="1">
          <mxGeometry x="530" y="389" width="10" height="10" as="geometry" />
        </mxCell>
        <mxCell id="hb5ULUkR8Dq5Dztwlfbj-6" value="" style="rounded=0;whiteSpace=wrap;html=1;fillColor=#dae8fc;strokeColor=#6c8ebf;direction=north;flipV=1;flipH=1;rotation=0;" vertex="1" parent="1">
          <mxGeometry x="550" y="389" width="10" height="10" as="geometry" />
        </mxCell>
        <mxCell id="hb5ULUkR8Dq5Dztwlfbj-9" value="" style="rounded=0;whiteSpace=wrap;html=1;fillColor=#f8cecc;strokeColor=#b85450;" vertex="1" parent="1">
          <mxGeometry x="510" y="400" width="10" height="10" as="geometry" />
        </mxCell>
        <mxCell id="hb5ULUkR8Dq5Dztwlfbj-10" value="" style="rounded=0;whiteSpace=wrap;html=1;fillColor=#f8cecc;strokeColor=#b85450;" vertex="1" parent="1">
          <mxGeometry x="520" y="400" width="10" height="10" as="geometry" />
        </mxCell>
        <mxCell id="hb5ULUkR8Dq5Dztwlfbj-11" value="" style="rounded=0;whiteSpace=wrap;html=1;fillColor=#f8cecc;strokeColor=#b85450;" vertex="1" parent="1">
          <mxGeometry x="530" y="400" width="10" height="10" as="geometry" />
        </mxCell>
        <mxCell id="hb5ULUkR8Dq5Dztwlfbj-12" value="" style="rounded=0;whiteSpace=wrap;html=1;fillColor=#f8cecc;strokeColor=#b85450;" vertex="1" parent="1">
          <mxGeometry x="540" y="400" width="10" height="10" as="geometry" />
        </mxCell>
        <mxCell id="hb5ULUkR8Dq5Dztwlfbj-13" value="" style="rounded=0;whiteSpace=wrap;html=1;fillColor=#f8cecc;strokeColor=#b85450;" vertex="1" parent="1">
          <mxGeometry x="550" y="400" width="10" height="10" as="geometry" />
        </mxCell>
        <mxCell id="hb5ULUkR8Dq5Dztwlfbj-14" value="" style="rounded=0;whiteSpace=wrap;html=1;fillColor=#f8cecc;strokeColor=#b85450;" vertex="1" parent="1">
          <mxGeometry x="560" y="400" width="10" height="10" as="geometry" />
        </mxCell>
        <mxCell id="hb5ULUkR8Dq5Dztwlfbj-15" value="" style="rounded=0;whiteSpace=wrap;html=1;fillColor=#d5e8d4;strokeColor=#82b366;" vertex="1" parent="1">
          <mxGeometry x="520" y="411" width="10" height="10" as="geometry" />
        </mxCell>
        <mxCell id="hb5ULUkR8Dq5Dztwlfbj-16" value="" style="rounded=0;whiteSpace=wrap;html=1;fillColor=#d5e8d4;strokeColor=#82b366;" vertex="1" parent="1">
          <mxGeometry x="510" y="411" width="10" height="10" as="geometry" />
        </mxCell>
        <mxCell id="hb5ULUkR8Dq5Dztwlfbj-17" value="" style="rounded=0;whiteSpace=wrap;html=1;fillColor=#d5e8d4;strokeColor=#82b366;" vertex="1" parent="1">
          <mxGeometry x="540" y="411" width="10" height="10" as="geometry" />
        </mxCell>
        <mxCell id="hb5ULUkR8Dq5Dztwlfbj-18" value="" style="rounded=0;whiteSpace=wrap;html=1;fillColor=#d5e8d4;strokeColor=#82b366;" vertex="1" parent="1">
          <mxGeometry x="530" y="411" width="10" height="10" as="geometry" />
        </mxCell>
        <mxCell id="hb5ULUkR8Dq5Dztwlfbj-19" value="" style="rounded=0;whiteSpace=wrap;html=1;fillColor=#d5e8d4;strokeColor=#82b366;" vertex="1" parent="1">
          <mxGeometry x="560" y="411" width="10" height="10" as="geometry" />
        </mxCell>
        <mxCell id="hb5ULUkR8Dq5Dztwlfbj-20" value="" style="rounded=0;whiteSpace=wrap;html=1;fillColor=#d5e8d4;strokeColor=#82b366;" vertex="1" parent="1">
          <mxGeometry x="550" y="411" width="10" height="10" as="geometry" />
        </mxCell>
        <mxCell id="hb5ULUkR8Dq5Dztwlfbj-21" value="" style="endArrow=classic;html=1;rounded=0;fillColor=#dae8fc;strokeColor=#6c8ebf;" edge="1" parent="1">
          <mxGeometry width="50" height="50" relative="1" as="geometry">
            <mxPoint x="480" y="334.43" as="sourcePoint" />
            <mxPoint x="500" y="370" as="targetPoint" />
          </mxGeometry>
        </mxCell>
        <mxCell id="hb5ULUkR8Dq5Dztwlfbj-22" value="" style="endArrow=classic;html=1;rounded=0;fillColor=#f8cecc;strokeColor=#b85450;" edge="1" parent="1">
          <mxGeometry width="50" height="50" relative="1" as="geometry">
            <mxPoint x="480" y="404.92" as="sourcePoint" />
            <mxPoint x="500" y="404.92" as="targetPoint" />
          </mxGeometry>
        </mxCell>
        <mxCell id="hb5ULUkR8Dq5Dztwlfbj-23" value="" style="endArrow=classic;html=1;rounded=0;fillColor=#d5e8d4;strokeColor=#82b366;" edge="1" parent="1">
          <mxGeometry width="50" height="50" relative="1" as="geometry">
            <mxPoint x="480" y="475" as="sourcePoint" />
            <mxPoint x="500" y="440" as="targetPoint" />
          </mxGeometry>
        </mxCell>
        <mxCell id="hb5ULUkR8Dq5Dztwlfbj-24" value="" style="group" vertex="1" connectable="0" parent="1">
          <mxGeometry x="440" y="445" width="10" height="60" as="geometry" />
        </mxCell>
        <mxCell id="59bn6zkRBfai4LQEzVHQ-141" value="" style="rounded=0;whiteSpace=wrap;html=1;fillColor=#d5e8d4;strokeColor=#82b366;" parent="hb5ULUkR8Dq5Dztwlfbj-24" vertex="1">
          <mxGeometry y="10" width="10" height="10" as="geometry" />
        </mxCell>
        <mxCell id="59bn6zkRBfai4LQEzVHQ-142" value="" style="rounded=0;whiteSpace=wrap;html=1;fillColor=#d5e8d4;strokeColor=#82b366;" parent="hb5ULUkR8Dq5Dztwlfbj-24" vertex="1">
          <mxGeometry y="20" width="10" height="10" as="geometry" />
        </mxCell>
        <mxCell id="59bn6zkRBfai4LQEzVHQ-143" value="" style="rounded=0;whiteSpace=wrap;html=1;fillColor=#d5e8d4;strokeColor=#82b366;" parent="hb5ULUkR8Dq5Dztwlfbj-24" vertex="1">
          <mxGeometry width="10" height="10" as="geometry" />
        </mxCell>
        <mxCell id="59bn6zkRBfai4LQEzVHQ-144" value="" style="rounded=0;whiteSpace=wrap;html=1;fillColor=#d5e8d4;strokeColor=#82b366;" parent="hb5ULUkR8Dq5Dztwlfbj-24" vertex="1">
          <mxGeometry y="40" width="10" height="10" as="geometry" />
        </mxCell>
        <mxCell id="59bn6zkRBfai4LQEzVHQ-145" value="" style="rounded=0;whiteSpace=wrap;html=1;fillColor=#d5e8d4;strokeColor=#82b366;" parent="hb5ULUkR8Dq5Dztwlfbj-24" vertex="1">
          <mxGeometry y="50" width="10" height="10" as="geometry" />
        </mxCell>
        <mxCell id="59bn6zkRBfai4LQEzVHQ-146" value="" style="rounded=0;whiteSpace=wrap;html=1;fillColor=#d5e8d4;strokeColor=#82b366;" parent="hb5ULUkR8Dq5Dztwlfbj-24" vertex="1">
          <mxGeometry y="30" width="10" height="10" as="geometry" />
        </mxCell>
        <mxCell id="hb5ULUkR8Dq5Dztwlfbj-28" value="&lt;font style=&quot;font-size: 8px;&quot;&gt;$$(B,H)$$&lt;/font&gt;" style="text;html=1;align=center;verticalAlign=middle;whiteSpace=wrap;rounded=0;" vertex="1" parent="1">
          <mxGeometry x="510" y="421" width="40" height="20" as="geometry" />
        </mxCell>
        <mxCell id="hb5ULUkR8Dq5Dztwlfbj-30" value="&lt;font face=&quot;Simsun&quot;&gt;&lt;span style=&quot;font-size: 10px;&quot;&gt;&lt;b&gt;下游任务分析算法&lt;/b&gt;&lt;/span&gt;&lt;/font&gt;" style="rounded=1;whiteSpace=wrap;html=1;fillColor=#e1d5e7;strokeColor=#9673a6;" vertex="1" parent="1">
          <mxGeometry x="610" y="320" width="50" height="170" as="geometry" />
        </mxCell>
        <mxCell id="hb5ULUkR8Dq5Dztwlfbj-32" value="" style="endArrow=classic;html=1;rounded=0;fillColor=#e1d5e7;strokeColor=#9673a6;" edge="1" parent="1">
          <mxGeometry width="50" height="50" relative="1" as="geometry">
            <mxPoint x="580" y="404.92" as="sourcePoint" />
            <mxPoint x="600" y="404.92" as="targetPoint" />
          </mxGeometry>
        </mxCell>
      </root>
    </mxGraphModel>
  </diagram>
</mxfile>
